<svg version="1.1" id="Layer_1" xmlns="http://www.w3.org/2000/svg" xmlns:xlink="http://www.w3.org/1999/xlink" x="0px" y="0px"
	 width="100%" viewBox="0 0 1024 1024" enable-background="new 0 0 1024 1024" xml:space="preserve">
<path fill="#000000" opacity="1.000000" stroke="none" 
	d="
M656.365417,584.000122 
	C656.358093,609.329712 656.216492,634.160522 656.453369,658.987793 
	C656.502258,664.116760 654.895386,665.678833 649.889160,665.431641 
	C642.241943,665.053894 634.553955,665.093018 626.900818,665.397705 
	C622.258118,665.582581 620.927612,663.936707 620.938965,659.356812 
	C621.068054,607.365479 621.018799,555.373718 620.957458,503.382080 
	C620.955139,501.417938 621.954651,498.989594 619.189636,497.493164 
	C616.513550,498.921234 617.363464,501.512024 617.357544,503.616241 
	C617.288574,527.945679 617.214050,552.276062 617.390198,576.604370 
	C617.419434,580.640259 616.102966,582.889099 612.616760,584.897400 
	C581.151917,603.023621 549.774048,621.301147 518.432068,639.639282 
	C516.049805,641.033142 514.328064,640.873474 512.046143,639.553162 
	C480.323578,621.198242 448.582916,602.873840 416.746185,584.718079 
	C413.419403,582.820923 412.665680,580.494385 412.678833,577.035645 
	C412.772522,552.373108 412.748932,527.709900 412.690765,503.047150 
	C412.686401,501.194183 413.520630,498.983124 411.225922,497.486298 
	C408.161621,498.263916 409.110901,500.844940 409.107239,502.752380 
	C409.008789,553.910706 408.958862,605.069092 408.930695,656.227478 
	C408.925690,665.341003 408.986603,665.339844 400.131775,665.333069 
	C393.632782,665.328186 387.133728,665.337402 380.634766,665.321167 
	C373.698608,665.303833 373.673676,665.294006 373.671021,658.516174 
	C373.651917,609.523621 373.640198,560.531067 373.634247,511.538483 
	C373.632507,497.189301 373.644531,497.189301 359.119507,497.179352 
	C345.703186,497.170197 345.702148,497.170197 345.702454,483.637573 
	C345.702545,479.138275 345.775879,474.637634 345.687164,470.140167 
	C345.637909,467.642822 346.538422,466.531403 349.169800,466.534637 
	C354.994568,466.541809 360.819946,466.213867 366.644470,466.231232 
	C372.483795,466.248627 373.439087,465.515564 373.567444,459.827240 
	C373.653900,455.996063 373.618408,452.162140 373.642151,448.329468 
	C373.652588,446.641479 373.591125,444.783569 375.453217,444.019684 
	C386.045349,439.674316 396.672028,435.413239 408.096069,430.796539 
	C410.007599,443.132690 407.997864,454.890839 410.290009,466.550659 
	C413.882355,457.523468 423.004242,456.306732 429.750671,452.082275 
	C442.026611,444.395447 454.750702,437.425018 467.269318,430.123932 
	C468.364105,429.485474 469.789276,429.057800 469.913208,427.329498 
	C468.373138,425.467010 466.224487,426.266357 464.361206,426.263062 
	C428.033630,426.198792 391.705475,426.105835 355.378815,426.290955 
	C350.547852,426.315582 348.071808,424.811249 346.711334,420.211975 
	C344.612244,413.115692 342.028259,406.162811 339.438019,398.524170 
	C347.716187,398.295746 354.790985,400.435242 362.016541,401.010498 
	C365.331451,401.274414 368.633423,401.644958 371.963684,401.645447 
	C468.115692,401.659271 564.267700,401.686188 660.419739,401.656372 
	C669.273865,401.653625 677.873718,399.250458 686.647278,398.403717 
	C687.626160,398.309235 688.609314,397.905762 689.700745,398.768555 
	C690.951050,401.303467 688.895874,403.368073 688.170715,405.593445 
	C686.572388,410.498260 684.406128,415.227478 682.970825,420.173218 
	C681.610779,424.859863 678.831726,426.194489 674.152832,426.181000 
	C637.992310,426.076965 601.831116,426.187592 565.670166,426.231140 
	C563.586609,426.233643 561.503052,426.231476 559.419434,426.231476 
	C559.320618,426.683807 559.221802,427.136139 559.122986,427.588440 
	C566.785583,432.145905 574.419067,436.753235 582.117859,441.248657 
	C592.619995,447.380951 603.041687,453.673401 613.776123,459.372925 
	C617.338379,461.264374 617.045837,464.683441 619.309753,467.421783 
	C622.183105,455.555908 620.079712,443.430115 621.515381,431.834442 
	C623.735352,430.762146 625.216370,431.769836 626.695618,432.374542 
	C635.174194,435.840607 643.593506,439.454865 652.113220,442.815369 
	C655.164551,444.019012 656.621643,445.703705 656.405273,449.130554 
	C656.143311,453.279449 656.486938,457.463440 656.324402,461.622711 
	C656.196106,464.906799 657.618408,466.085205 660.773621,466.008820 
	C666.269836,465.875641 671.770935,465.927246 677.269958,465.923828 
	C684.278809,465.919495 684.289124,465.929077 684.296875,472.680695 
	C684.303772,478.679779 684.298157,484.678894 684.272705,490.677887 
	C684.245117,497.191589 684.232422,497.200165 677.478882,497.225067 
	C672.313049,497.244141 667.135315,497.455688 661.984863,497.176392 
	C657.546021,496.935730 656.258972,498.721832 656.282837,503.012177 
	C656.431946,529.840759 656.362427,556.670654 656.365417,584.000122 
M580.294922,469.228485 
	C578.560181,468.236359 576.812866,467.265533 575.092651,466.248840 
	C557.029846,455.572968 538.976685,444.880920 520.906921,434.216919 
	C517.758362,432.358765 514.931458,430.684540 510.863312,433.106812 
	C486.250214,447.761841 461.508575,462.202911 436.701843,476.528412 
	C433.347534,478.465424 432.164520,480.685425 432.187347,484.466858 
	C432.334351,508.792786 432.492737,533.123291 432.119965,557.444214 
	C432.032043,563.182373 434.188843,566.066345 438.837311,568.709778 
	C463.300964,582.621094 487.643921,596.745850 511.952820,610.926697 
	C514.357605,612.329529 516.099670,612.125854 518.330933,610.824158 
	C543.642090,596.057556 568.992859,581.358704 594.335022,566.645264 
	C596.328064,565.488159 597.236450,564.094482 597.316406,561.476990 
	C598.008118,538.822083 597.800720,516.161865 597.520508,493.513519 
	C597.300903,475.757843 600.008362,480.425995 585.216919,472.162048 
	C583.763794,471.350159 582.355957,470.457062 580.294922,469.228485 
z"/>
<path fill="#000000" opacity="1.000000" stroke="none" 
	d="
M719.619995,372.522888 
	C718.083252,376.451569 716.249329,379.921936 715.418640,383.617798 
	C714.050537,389.704620 710.219360,391.504486 704.492065,392.229767 
	C677.053040,395.704559 649.598816,397.540039 621.875549,397.382751 
	C538.383057,396.909027 454.885193,397.437164 371.391724,397.062073 
	C357.831604,397.001190 344.283173,394.332092 330.730011,392.862396 
	C330.400970,392.826691 330.066284,392.615692 329.757172,392.657196 
	C318.717072,394.139771 314.799133,387.442261 312.199127,378.243683 
	C310.047028,370.629730 306.251740,363.509094 304.009460,355.133087 
	C312.074707,355.336639 319.284088,357.103363 326.566620,358.205475 
	C349.405060,361.661926 372.167633,365.774384 395.101715,368.383240 
	C407.944946,369.844177 421.069153,368.923584 434.066772,368.923157 
	C497.229584,368.921082 560.392456,368.813599 623.555115,368.869995 
	C639.145630,368.883881 654.231567,365.242645 669.529175,363.149414 
	C686.325745,360.851013 703.074768,358.206238 719.853394,355.773438 
	C721.454834,355.541260 723.119141,355.742462 725.991211,355.742462 
	C723.803467,361.521088 721.788452,366.843475 719.619995,372.522888 
z"/>
<path fill="#000000" opacity="1.000000" stroke="none" 
	d="
M438.431091,478.578644 
	C462.899567,464.258728 487.057220,450.171753 511.126190,435.934937 
	C513.987183,434.242706 516.348694,434.352417 519.019409,435.925232 
	C543.115540,450.115417 567.209717,464.309021 591.350037,478.423676 
	C594.295227,480.145721 595.357117,482.387665 595.343506,485.761292 
	C595.246643,509.915497 595.237610,534.070679 595.373291,558.224548 
	C595.393677,561.864136 594.094971,564.003357 590.986511,565.799744 
	C567.638367,579.292419 544.322510,592.842957 521.117676,606.580017 
	C516.915466,609.067688 513.692139,609.235535 509.301331,606.619629 
	C486.425629,592.991028 463.368439,579.663330 440.242981,566.461182 
	C436.155792,564.127869 434.443634,561.552917 434.501251,556.690125 
	C434.781586,533.038208 434.679535,509.381439 434.630188,485.726562 
	C434.623901,482.712158 434.809875,480.031982 438.431091,478.578644 
M556.314392,485.234985 
	C543.976929,477.974640 531.588074,470.799194 519.338989,463.392639 
	C516.379944,461.603394 514.086365,461.673981 511.152100,463.412628 
	C494.828705,473.084961 478.431458,482.634338 461.978271,492.084381 
	C459.197205,493.681671 457.973083,495.516846 458.005646,498.799713 
	C458.159302,514.282410 458.140503,529.767639 458.049530,545.251221 
	C458.031952,548.242249 458.966736,550.141663 461.657806,551.670837 
	C477.865692,560.880859 494.041382,570.151489 510.090363,579.634460 
	C513.698364,581.766357 516.557983,581.822998 520.161377,579.689270 
	C535.915771,570.360596 551.770264,561.198486 567.684082,552.143921 
	C570.671326,550.444336 571.878540,548.443787 571.820801,545.001404 
	C571.633728,533.848938 570.749817,522.580994 571.984375,511.564850 
	C573.444458,498.535675 569.593140,489.844757 556.314392,485.234985 
z"/>
<path fill="#000000" opacity="1.000000" stroke="none" 
	d="
M543.267212,535.637024 
	C543.532715,539.156677 542.019104,540.990662 539.394897,542.417542 
	C532.226074,546.315369 525.119873,550.332214 518.062622,554.428894 
	C515.780396,555.753723 513.761963,555.812866 511.522247,554.463928 
	C504.387665,550.166870 497.242188,545.886169 490.039001,541.705872 
	C487.737549,540.370178 486.889221,538.583679 486.920563,535.973572 
	C487.018585,527.808960 487.021667,519.641357 486.911774,511.476959 
	C486.873779,508.655029 487.914856,506.756104 490.340332,505.363037 
	C497.418060,501.298004 504.466064,497.179932 511.478943,493.003998 
	C513.891541,491.567352 516.004883,491.636505 518.456055,493.086731 
	C525.479614,497.242279 532.593201,501.249664 539.741455,505.188263 
	C542.211853,506.549408 543.293518,508.317444 543.252258,511.185333 
	C543.137390,519.182434 543.250427,527.182861 543.267212,535.637024 
z"/>
</svg>